<svg xmlns="http://www.w3.org/2000/svg" width="800" height="600" viewBox="0 0 800 600" fill="none">

<defs>
  <radialGradient id="glow1" cx="50%" cy="30%" r="60%">
    <stop offset="0%" stop-color="#ffffff" stop-opacity="0.18"/>
    <stop offset="100%" stop-color="#ffffff" stop-opacity="0"/>
  </radialGradient>
  <radialGradient id="glow2" cx="20%" cy="70%" r="50%">
    <stop offset="0%" stop-color="#ffffff" stop-opacity="0.12"/>
    <stop offset="100%" stop-color="#ffffff" stop-opacity="0"/>
  </radialGradient>
  <filter id="soft" x="-20%" y="-20%" width="140%" height="140%">
    <feGaussianBlur in="SourceGraphic" stdDeviation="0.6"/>
  </filter>
</defs>

<g>
<rect width="800" height="600" fill="url(#glow1)"/><rect width="800" height="600" fill="url(#glow2)"/><circle cx="664" cy="124" r="8.5" fill="#7AE582" filter="url(#soft)"/><polygon points="238,136 228.4,161.6 247.6,161.6" fill="#FFD166" transform="rotate(52 238 152)" filter="url(#soft)"/><rect x="99" y="442" width="6" height="3" rx="0" fill="#7AE582" transform="rotate(16 99 442)" filter="url(#soft)"/><polygon points="527,28 521.6,42.4 532.4,42.4" fill="#EF476F" transform="rotate(287 527 37)" filter="url(#soft)"/><circle cx="728" cy="568" r="4.5" fill="#06D6A0" filter="url(#soft)"/><circle cx="294" cy="16" r="8.5" fill="#4895EF" filter="url(#soft)"/><circle cx="294" cy="169" r="9.0" fill="#FFB84C" filter="url(#soft)"/><circle cx="104" cy="399" r="5.5" fill="#06D6A0" filter="url(#soft)"/><rect x="280" y="54" width="14" height="8" rx="0" fill="#9D4EDD" transform="rotate(235 280 54)" filter="url(#soft)"/><circle cx="575" cy="310" r="7.5" fill="#06D6A0" filter="url(#soft)"/><rect x="206" y="81" width="16" height="9" rx="0" fill="#4CC9F0" transform="rotate(23 206 81)" filter="url(#soft)"/><circle cx="248" cy="113" r="5.0" fill="#EF476F" filter="url(#soft)"/><rect x="383" y="176" width="11" height="6" rx="2" fill="#EF476F" transform="rotate(189 383 176)" filter="url(#soft)"/><rect x="728" y="83" width="16" height="9" rx="4" fill="#FFD166" transform="rotate(311 728 83)" filter="url(#soft)"/><circle cx="260" cy="177" r="6.0" fill="#EF476F" filter="url(#soft)"/><circle cx="714" cy="580" r="8.0" fill="#FF5D5D" filter="url(#soft)"/><circle cx="244" cy="42" r="6.0" fill="#FFB84C" filter="url(#soft)"/><polygon points="226,581 220.6,595.4 231.4,595.4" fill="#F15BB5" transform="rotate(161 226 590)" filter="url(#soft)"/><rect x="415" y="479" width="10" height="6" rx="4" fill="#7AE582" transform="rotate(73 415 479)" filter="url(#soft)"/><polygon points="584,544 573.8,571.2 594.2,571.2" fill="#9D4EDD" transform="rotate(134 584 561)" filter="url(#soft)"/><rect x="607" y="418" width="9" height="5" rx="2" fill="#FFD166" transform="rotate(185 607 418)" filter="url(#soft)"/><polygon points="103,50 98.2,62.8 107.8,62.8" fill="#FFE382" transform="rotate(56 103 58)" filter="url(#soft)"/><circle cx="706" cy="442" r="3.5" fill="#9D4EDD" filter="url(#soft)"/><polygon points="620,479 614.0,495.0 626.0,495.0" fill="#FF5D5D" transform="rotate(270 620 489)" filter="url(#soft)"/><circle cx="706" cy="127" r="7.0" fill="#EF476F" filter="url(#soft)"/><rect x="358" y="124" width="12" height="7" rx="0" fill="#F15BB5" transform="rotate(150 358 124)" filter="url(#soft)"/><rect x="749" y="279" width="18" height="10" rx="0" fill="#FFD166" transform="rotate(256 749 279)" filter="url(#soft)"/><polygon points="650,301 641.6,323.4 658.4,323.4" fill="#7AE582" transform="rotate(327 650 315)" filter="url(#soft)"/><polygon points="166,378 157.6,400.4 174.4,400.4" fill="#FF5D5D" transform="rotate(82 166 392)" filter="url(#soft)"/><rect x="623" y="341" width="6" height="3" rx="2" fill="#4895EF" transform="rotate(250 623 341)" filter="url(#soft)"/><rect x="255" y="69" width="15" height="9" rx="4" fill="#FFB84C" transform="rotate(123 255 69)" filter="url(#soft)"/><rect x="507" y="80" width="18" height="10" rx="4" fill="#FFE382" transform="rotate(272 507 80)" filter="url(#soft)"/><polygon points="496,562 490.0,578.0 502.0,578.0" fill="#06D6A0" transform="rotate(84 496 572)" filter="url(#soft)"/><polygon points="443,208 432.2,236.8 453.8,236.8" fill="#8338EC" transform="rotate(276 443 226)" filter="url(#soft)"/><polygon points="215,313 205.4,338.6 224.6,338.6" fill="#4895EF" transform="rotate(204 215 329)" filter="url(#soft)"/><rect x="458" y="539" width="7" height="4" rx="0" fill="#7AE582" transform="rotate(231 458 539)" filter="url(#soft)"/><rect x="356" y="31" width="14" height="8" rx="0" fill="#06D6A0" transform="rotate(301 356 31)" filter="url(#soft)"/><rect x="17" y="82" width="6" height="3" rx="0" fill="#FFB84C" transform="rotate(323 17 82)" filter="url(#soft)"/><circle cx="348" cy="82" r="4.5" fill="#EF476F" filter="url(#soft)"/><polygon points="507,221 502.2,233.8 511.8,233.8" fill="#06D6A0" transform="rotate(276 507 229)" filter="url(#soft)"/><circle cx="600" cy="494" r="9.0" fill="#9D4EDD" filter="url(#soft)"/><circle cx="204" cy="106" r="8.0" fill="#4895EF" filter="url(#soft)"/><rect x="443" y="430" width="17" height="10" rx="4" fill="#EF476F" transform="rotate(239 443 430)" filter="url(#soft)"/><polygon points="671,98 663.8,117.2 678.2,117.2" fill="#4895EF" transform="rotate(31 671 110)" filter="url(#soft)"/><polygon points="121,255 115.6,269.4 126.4,269.4" fill="#F15BB5" transform="rotate(98 121 264)" filter="url(#soft)"/><path d="M163,452 c18,-18 18,18 0,36 s-18,18 0,36" fill="none" stroke="#F15BB5" stroke-width="3" stroke-linecap="round" filter="url(#soft)"/><path d="M275,97 c27,-27 27,27 0,54 s-27,27 0,54" fill="none" stroke="#FFB84C" stroke-width="3" stroke-linecap="round" filter="url(#soft)"/><path d="M71,573 c10,-10 10,10 0,20 s-10,10 0,20" fill="none" stroke="#FFB84C" stroke-width="3" stroke-linecap="round" filter="url(#soft)"/><path d="M262,190 c25,-25 25,25 0,50 s-25,25 0,50" fill="none" stroke="#F15BB5" stroke-width="3" stroke-linecap="round" filter="url(#soft)"/><path d="M238,430 c11,-11 11,11 0,22 s-11,11 0,22" fill="none" stroke="#FFE382" stroke-width="3" stroke-linecap="round" filter="url(#soft)"/><path d="M408,22 c18,-18 18,18 0,36 s-18,18 0,36" fill="none" stroke="#F15BB5" stroke-width="3" stroke-linecap="round" filter="url(#soft)"/><path d="M312,453 c27,-27 27,27 0,54 s-27,27 0,54" fill="none" stroke="#EF476F" stroke-width="3" stroke-linecap="round" filter="url(#soft)"/><path d="M755,518 c16,-16 16,16 0,32 s-16,16 0,32" fill="none" stroke="#4CC9F0" stroke-width="3" stroke-linecap="round" filter="url(#soft)"/><path d="M242,79 c27,-27 27,27 0,54 s-27,27 0,54" fill="none" stroke="#FF5D5D" stroke-width="3" stroke-linecap="round" filter="url(#soft)"/><path d="M341,78 c28,-28 28,28 0,56 s-28,28 0,56" fill="none" stroke="#F15BB5" stroke-width="3" stroke-linecap="round" filter="url(#soft)"/><path d="M534,563 c11,-11 11,11 0,22 s-11,11 0,22" fill="none" stroke="#FFD166" stroke-width="3" stroke-linecap="round" filter="url(#soft)"/><path d="M102,210 c12,-12 12,12 0,24 s-12,12 0,24" fill="none" stroke="#EF476F" stroke-width="3" stroke-linecap="round" filter="url(#soft)"/><g transform="translate(250 423)"><rect x="-3.0" y="-1" width="6" height="2" fill="#ffffff" opacity="0.75"/><rect x="-1" y="-3.0" width="2" height="6" fill="#ffffff" opacity="0.75"/></g><g transform="translate(593 262)"><rect x="-5.0" y="-1" width="10" height="2" fill="#ffffff" opacity="0.75"/><rect x="-1" y="-5.0" width="2" height="10" fill="#ffffff" opacity="0.75"/></g><g transform="translate(618 50)"><rect x="-5.0" y="-1" width="10" height="2" fill="#ffffff" opacity="0.75"/><rect x="-1" y="-5.0" width="2" height="10" fill="#ffffff" opacity="0.75"/></g><g transform="translate(93 439)"><rect x="-5.5" y="-1" width="11" height="2" fill="#ffffff" opacity="0.75"/><rect x="-1" y="-5.5" width="2" height="11" fill="#ffffff" opacity="0.75"/></g><g transform="translate(607 588)"><rect x="-5.0" y="-1" width="10" height="2" fill="#ffffff" opacity="0.75"/><rect x="-1" y="-5.0" width="2" height="10" fill="#ffffff" opacity="0.75"/></g><g transform="translate(333 277)"><rect x="-3.5" y="-1" width="7" height="2" fill="#ffffff" opacity="0.75"/><rect x="-1" y="-3.5" width="2" height="7" fill="#ffffff" opacity="0.75"/></g><g transform="translate(695 331)"><rect x="-3.5" y="-1" width="7" height="2" fill="#ffffff" opacity="0.75"/><rect x="-1" y="-3.5" width="2" height="7" fill="#ffffff" opacity="0.75"/></g><g transform="translate(281 415)"><rect x="-3.5" y="-1" width="7" height="2" fill="#ffffff" opacity="0.75"/><rect x="-1" y="-3.5" width="2" height="7" fill="#ffffff" opacity="0.75"/></g><g transform="translate(697 317)"><rect x="-4.5" y="-1" width="9" height="2" fill="#ffffff" opacity="0.75"/><rect x="-1" y="-4.5" width="2" height="9" fill="#ffffff" opacity="0.75"/></g><g transform="translate(333 84)"><rect x="-3.0" y="-1" width="6" height="2" fill="#ffffff" opacity="0.75"/><rect x="-1" y="-3.0" width="2" height="6" fill="#ffffff" opacity="0.75"/></g><g transform="translate(479 586)"><rect x="-3.0" y="-1" width="6" height="2" fill="#ffffff" opacity="0.75"/><rect x="-1" y="-3.0" width="2" height="6" fill="#ffffff" opacity="0.75"/></g><g transform="translate(85 560)"><rect x="-3.5" y="-1" width="7" height="2" fill="#ffffff" opacity="0.75"/><rect x="-1" y="-3.5" width="2" height="7" fill="#ffffff" opacity="0.75"/></g><g transform="translate(528 281)"><rect x="-3.5" y="-1" width="7" height="2" fill="#ffffff" opacity="0.75"/><rect x="-1" y="-3.5" width="2" height="7" fill="#ffffff" opacity="0.75"/></g><g transform="translate(367 80)"><rect x="-3.5" y="-1" width="7" height="2" fill="#ffffff" opacity="0.75"/><rect x="-1" y="-3.5" width="2" height="7" fill="#ffffff" opacity="0.75"/></g><g transform="translate(388 301)"><rect x="-3.5" y="-1" width="7" height="2" fill="#ffffff" opacity="0.75"/><rect x="-1" y="-3.5" width="2" height="7" fill="#ffffff" opacity="0.75"/></g><g transform="translate(458 566)"><rect x="-5.5" y="-1" width="11" height="2" fill="#ffffff" opacity="0.75"/><rect x="-1" y="-5.5" width="2" height="11" fill="#ffffff" opacity="0.75"/></g><g transform="translate(319 551)"><rect x="-3.0" y="-1" width="6" height="2" fill="#ffffff" opacity="0.75"/><rect x="-1" y="-3.0" width="2" height="6" fill="#ffffff" opacity="0.75"/></g><g transform="translate(693 577)"><rect x="-4.0" y="-1" width="8" height="2" fill="#ffffff" opacity="0.75"/><rect x="-1" y="-4.0" width="2" height="8" fill="#ffffff" opacity="0.75"/></g>
</g>
</svg>